<svg version="1.2" xmlns="http://www.w3.org/2000/svg" viewBox="0 0 1640 664" width="1640" height="664">
	<title>New Project</title>
	<style>
		.s0 { fill: #ffffff } 
		.s1 { fill: none;stroke: #ffffff } 
		.s2 { fill: none;stroke: #000000 } 
		.s3 { fill: #ffffff;stroke: #000000 } 
	</style>
	<path id="etranet" class="s0" aria-label="etranet"  d="m341.2 341.6h101.7q0-12.3-3.1-25.1-2.6-12.7-8.3-22.2-13.3-23.1-37.9-23.1-24.7 0-38.7 23.5-6.5 11.5-9.9 23.8-3.4 12.4-3.8 23.1zm116.1 22.6h-116.4q-0.4 12.8 4.1 27.9 5 14.7 13.3 24.2 8.3 9.2 19 14.7 10.6 5.6 25.8 5.6 13.2 0 24.6-2.8 11.4-2.8 22.8-9.1 4.5-2 4.9 2.8v18.2q0 3.2-4.2 5.2-11.7 4.8-23.1 7.2-11 2.4-26.9 2.4-40.6 0-64.5-28.3-23.9-28.6-23.9-76.7 0-43.7 23.5-76.3 24.7-30.6 57.7-30.6 20.4 0 33.7 7.5 13.7 7.6 24.3 23.1 18.9 26.6 18.9 72.3 0 4.8-0.3 7.6 0 2.4-1.2 3.6-1.1 1.2-4.2 1.5-2.6 0-7.9 0zm191.5 89.5q-15.9 6.8-37.2 6.8-34.5 0-44.3-21.1-6.5-14.3-6.5-50.5v-101.8h-49.3q-5.3 0-5.3-5.5v-12q0-5.5 5.3-5.5h49.3v-56.1q0-5.9 4.9-5.9h16q4.9 0 4.9 5.9v56.1h61.1q5.3 0 5.3 5.5v12q0 5.5-5.3 5.5h-61.1v119.7q0 29.8 31.1 29.8 15.5 0 29.6-6.8 1.9-0.8 3.4 0 1.9 0.8 1.9 3.2l0.7 12.7q0.8 5.6-4.5 8zm105.4-24.3h37.6q5.3 0 5.3 5.6v13.5q0 5.6-5.3 5.6h-85.4q-5.3 0-5.3-5.6v-13.5q0-5.6 5.3-5.6h22.4v-149.8h-29.2q-5.3 0-5.3-5.6v-13.5q0-5.6 5.3-5.6h45.9q5.3 0 5.3 5.6v38.9q23.1-50 66.8-50 22.3 0 40.2 9.1 3.7 1.6 4.1 4 0.4 2.4-0.7 5.1l-4.6 14.4q-1.1 2.7-3 2.7-1.5-0.4-4.2-1.9-16.7-8.4-35.6-8.4-31.1 1.6-49.3 35.4-10.3 20.7-10.3 54.1zm252.2-67.2v-12.4h-7.2q-21.2-0.8-35.6 1.6-14.5 2.4-24.7 7.6-12.5 5.6-19.3 17.5-6.9 11.5-6.9 23.8 0 7.2 3.1 15.5 3 8 9.5 12.4 11 9.5 24.6 9.5 13.3 0 22-5.2 8.7-5.5 17.1-16.7 8.3-11.5 12.9-25.8 4.5-14.3 4.5-27.8zm-97.4-74.4q-1.9 1.2-3.8 0.8-1.6-0.8-1.6-2.8v-15.5q0-5.1 5.4-7.5 12.8-8 26.1-11.2 13.7-3.1 29.2-3.1 33-0.8 50.5 19.8 17.4 20.7 17.4 51.3v92.7q0 11.1 0.4 19.8 0.4 8.8 1.1 16.7 0 5.2-5.3 5.2h-13.6q-5.4 0-5.4-5.2v-28.2q-7.9 18.7-24.2 29.4-16.3 10.4-38.3 10.4-32.6 0-50.5-22.3-6-7.2-9.1-17.1-3-9.9-3-19.5 0-20.6 10.6-37.7 11-17.5 33.4-26.3 21.6-10.3 73.2-10.3h4.9v-9.2q0-20.2-11-33.4-10.6-13.5-31.1-13.5-16.3 0-29.2 4-12.5 3.6-26.1 12.7zm312.4 44.9v115.7q0 5.6-5.3 5.6h-15.1q-5.3 0-5.3-5.6v-109.3q0-36.6-9.5-51.7-9.5-15.5-32.3-15.5-20.1 0-33.7 17.1-13.7 16.7-13.7 50.9v108.5q0 5.6-5.3 5.6h-15.1q-5.4 0-5.4-5.6v-143.1q0-17.1-0.3-26.6 0-9.6-0.8-18.3-0.4-2.8 1.1-4 1.9-1.6 4.2-1.6h13.7q5.3 0 5.3 5.6v22.3q9.1-17.1 22-25.1 13.2-8.3 30.3-8.3 33.4 0 49.3 21.8 15.9 21.9 15.9 61.6zm67.9 8.8h101.7q0-12.3-3.1-25.1-2.6-12.7-8.3-22.2-13.3-23.1-37.9-23.1-24.7 0-38.7 23.5-6.5 11.5-9.9 23.8-3.4 12.4-3.8 23.1zm116.1 22.7h-116.5q-0.3 12.7 4.2 27.8 4.9 14.7 13.3 24.2 8.3 9.2 18.9 14.7 10.7 5.6 25.8 5.6 13.3 0 24.7-2.8 11.4-2.8 22.7-9.1 4.6-2 5 2.8v18.3q0 3.1-4.2 5.1-11.8 4.8-23.1 7.2-11 2.4-27 2.4-40.5 0-64.4-28.3-23.9-28.6-23.9-76.7 0-43.7 23.5-76.3 24.6-30.6 57.6-30.6 20.5 0 33.8 7.5 13.6 7.6 24.3 23.1 18.9 26.6 18.9 72.3 0 4.8-0.4 7.6 0 2.4-1.1 3.6-1.1 1.2-4.2 1.6-2.6 0-7.9 0zm191.5 89.4q-15.9 6.8-37.2 6.8-34.5 0-44.4-21.1-6.4-14.3-6.4-50.5v-101.8h-49.3q-5.3 0-5.3-5.5v-12q0-5.5 5.3-5.5h49.3v-56.1q0-5.9 4.9-5.9h16q4.9 0 4.9 5.9v56.1h61q5.4 0 5.4 5.5v12q0 5.5-5.4 5.5h-61v119.7q0 29.8 31.1 29.8 15.5 0 29.6-6.8 1.9-0.7 3.4 0 1.9 0.8 1.9 3.2l0.7 12.8q0.8 5.5-4.5 7.9z"/>
	<g id="Folder 1">
		<g id="Cube">
			<path id="Triangle" class="s0" d="m96 164l43-44v87h-87z"/>
			<path id="Outline" class="s1" d="m52 120h87v87h-87z"/>
			<path id="TopLeft" class="s1" d="m96 164l-44-44"/>
			<path id="BottomRight" class="s2" d="m139 207l-43-43"/>
			<path id="Center" class="s3" d="m73 141h45v45h-45z"/>
		</g>
		<g id="Cube copy">
			<path id="Triangle" class="s0" d="m184 164l43-44v87h-87z"/>
			<path id="Outline" class="s1" d="m140 120h87v87h-87z"/>
			<path id="TopLeft" class="s1" d="m184 164l-44-44"/>
			<path id="BottomRight" class="s2" d="m227 207l-43-43"/>
			<path id="Center" class="s3" d="m161 141h45v45h-45z"/>
		</g>
		<g id="Cube copy 2">
			<path id="Triangle" class="s0" d="m271 164l43-44v87h-87z"/>
			<path id="Outline" class="s1" d="m227 120h87v87h-87z"/>
			<path id="TopLeft" class="s1" d="m271 164l-44-44"/>
			<path id="BottomRight" class="s2" d="m314 207l-43-43"/>
			<path id="Center" class="s3" d="m248 141h45v45h-45z"/>
		</g>
		<g id="Cube copy 3">
			<path id="Triangle" class="s0" d="m184 251l43-44v87h-87z"/>
			<path id="Outline" class="s1" d="m140 207h87v87h-87z"/>
			<path id="TopLeft" class="s1" d="m184 251l-44-44"/>
			<path id="BottomRight" class="s2" d="m227 294l-43-43"/>
			<path id="Center" class="s3" d="m161 228h45v45h-45z"/>
		</g>
		<g id="Cube copy 4">
			<path id="Triangle" class="s0" d="m184 338l43-44v87h-87z"/>
			<path id="Outline" class="s1" d="m140 294h87v87h-87z"/>
			<path id="TopLeft" class="s1" d="m184 338l-44-44"/>
			<path id="BottomRight" class="s2" d="m227 381l-43-43"/>
			<path id="Center" class="s3" d="m161 315h45v45h-45z"/>
		</g>
		<g id="Cube copy 5">
			<path id="Triangle" class="s0" d="m184 425l43-44v87h-87z"/>
			<path id="Outline" class="s1" d="m140 381h87v87h-87z"/>
			<path id="TopLeft" class="s1" d="m184 425l-44-44"/>
			<path id="BottomRight" class="s2" d="m227 468l-43-43"/>
			<path id="Center" class="s3" d="m161 402h45v45h-45z"/>
		</g>
	</g>
</svg>